<svg width="12" height="16" viewBox="0 0 12 16" fill="none" xmlns="http://www.w3.org/2000/svg">
  <path d="M10.8249 13.4585C10.2197 14.3677 9.57806 15.255 8.60098 15.2697C7.6239 15.2917 7.31035 14.6904 6.20202 14.6904C5.08639 14.6904 4.74369 15.255 3.81762 15.2917C2.86241 15.3283 2.14054 14.3237 1.52804 13.4365C0.28116 11.6252 -0.67405 8.2888 0.609285 6.04495C1.24366 4.93036 2.38116 4.2264 3.61345 4.20441C4.54681 4.18974 5.43639 4.84236 6.01244 4.84236C6.58119 4.84236 7.66036 4.05775 8.79056 4.17507C9.26452 4.19707 10.5916 4.36573 11.4447 5.62698C11.3791 5.67097 9.86244 6.56558 9.87702 8.42079C9.8989 10.6353 11.8093 11.3759 11.8312 11.3833C11.8093 11.4346 11.5249 12.4392 10.8249 13.4585ZM6.6614 1.7259C7.19369 1.11728 8.07598 0.655308 8.80515 0.625977C8.89994 1.48392 8.55723 2.3492 8.04681 2.96515C7.54369 3.58845 6.71244 4.07241 5.89577 4.00642C5.78639 3.16314 6.19473 2.2832 6.6614 1.7259Z" fill="#38343C"/>
</svg>
