<svg width="14" height="16" viewBox="0 0 14 16" fill="none" xmlns="http://www.w3.org/2000/svg">
  <path d="M2.29974 1.01022L10.3461 5.63668L8.62143 7.36134L2.29974 1.01022ZM0.63272 0.63623L8.01875 7.99344L0.633334 15.3507C0.257502 15.1845 0 14.8148 0 14.385C0 14.3709 0 14.3568 0.000613101 14.3433V14.3452V1.64233C0 1.63068 0 1.61658 0 1.60248C0 1.17269 0.257502 0.802994 0.626589 0.639296L0.633334 0.636844L0.63272 0.63623ZM12.8469 7.13142C13.1007 7.31965 13.2632 7.61884 13.2632 7.95543C13.2632 7.96892 13.2632 7.9818 13.2626 7.99528V7.99344C13.2651 8.01981 13.2669 8.05108 13.2669 8.08234C13.2669 8.39871 13.1136 8.6795 12.877 8.85363L12.8745 8.85546L11.1499 9.83214L9.28235 7.99344L11.1505 6.12533L12.8469 7.13142ZM2.29974 14.9767L8.62204 8.62555L10.3467 10.3502L2.29974 14.9767Z" fill="#38343C"/>
</svg>
