<svg width="26" height="40" viewBox="0 0 26 40" fill="none" xmlns="http://www.w3.org/2000/svg">
  <path fill-rule="evenodd" clip-rule="evenodd" d="M12.8682 1C11.5191 1 10.2252 1.53594 9.27118 2.48993C8.31719 3.44392 7.78125 4.73781 7.78125 6.08695V19.6521C7.78125 21.0013 8.31719 22.2952 9.27118 23.2492C10.2252 24.2031 11.5191 24.7391 12.8682 24.7391C14.2173 24.7391 15.5112 24.2031 16.4652 23.2492C17.4192 22.2952 17.9551 21.0013 17.9551 19.6521V6.08695C17.9551 4.73781 17.4192 3.44392 16.4652 2.48993C15.5112 1.53594 14.2173 1 12.8682 1Z" stroke="#38343C" stroke-width="2" stroke-linecap="round" stroke-linejoin="round"/>
  <path d="M24.7391 16.2612V19.6525C24.7391 22.8005 23.4885 25.8196 21.2626 28.0456C19.0366 30.2715 16.0175 31.5221 12.8695 31.5221C9.72155 31.5221 6.70248 30.2715 4.47651 28.0456C2.25054 25.8196 1 22.8005 1 19.6525L1 16.2612" stroke="#38343C" stroke-width="2" stroke-linecap="round" stroke-linejoin="round"/>
  <path d="M12.8691 31.522V38.3046" stroke="#38343C" stroke-width="2" stroke-linecap="round" stroke-linejoin="round"/>
  <path d="M6.08789 38.3047H19.6531" stroke="#38343C" stroke-width="2" stroke-linecap="round" stroke-linejoin="round"/>
</svg>
