<svg width="164" height="86" viewBox="0 0 164 86" fill="none" xmlns="http://www.w3.org/2000/svg">
  <g clip-path="url(#clip0_3293_4419)">
    <path fill-rule="evenodd" clip-rule="evenodd" d="M159.635 38.091C149.852 38.8826 139.622 38.4801 134.299 39.3689C132.544 39.6614 130.416 40.3128 132.789 40.8696C138.519 42.2145 145.411 42.5922 151.891 41.6224C150.528 42.2154 149.191 42.9019 147.399 43.9264C135.467 50.7492 121.622 56.1676 107.598 58.8704C95.9915 61.1076 83.5196 61.7084 71.9599 58.8653C75.206 54.4505 77.9361 49.7874 80.0977 44.7273C84.7053 33.9422 84.9544 19.2253 70.4961 16.7151C58.476 14.6289 50.0373 26.2803 50.7841 37.3862C51.3223 45.3923 55.431 50.5237 60.1528 55.1516C62.149 57.1079 64.4513 58.7281 67.001 60.0421C43.075 84.8172 14.4774 76.9653 4.14294 50.8068C12.0009 83.9561 49.3951 84.9215 69.6646 61.2693C93.2522 70.9451 134.076 58.2229 153.27 42.9569C150.983 46.2603 149.33 50.6342 148.459 54.675C148.33 55.2732 147.612 57.6111 147.916 58.7512C148.028 59.1748 148.283 59.4342 148.76 59.3772C149.032 59.3445 149.291 59.15 149.536 58.8122C150.249 57.8279 151.53 54.4044 152.818 51.0723C154.728 46.1287 156.493 42.4367 159.635 38.091ZM69.4445 57.3775C72.8509 52.7445 75.8111 47.5078 77.9579 42.1821C81.418 33.5997 81.4346 24.1589 73.3662 20.5595C68.373 18.3321 63.6113 19.4398 59.9686 22.6948C46.849 34.4191 57.8304 53.0217 69.4445 57.3775Z" fill="#B0B3F4"/>
  </g>
  <defs>
    <clipPath id="clip0_3293_4419">
      <rect width="155.111" height="57.6472" fill="white" transform="matrix(0.982179 -0.18795 -0.18795 -0.982179 10.834 85.7729)"/>
    </clipPath>
  </defs>
</svg>
