<svg width="67" height="75" viewBox="0 0 67 75" fill="none" xmlns="http://www.w3.org/2000/svg">
  <path d="M35.2028 24.1653C36.1693 21.5534 39.8634 21.5534 40.8299 24.1653L45.3657 36.4231C45.6696 37.2443 46.317 37.8917 47.1382 38.1956L59.396 42.7314C62.0078 43.6978 62.0078 47.392 59.396 48.3585L47.1382 52.8943C46.317 53.1981 45.6696 53.8456 45.3657 54.6667L40.8299 66.9245C39.8634 69.5364 36.1693 69.5364 35.2028 66.9245L30.667 54.6667C30.3631 53.8456 29.7157 53.1981 28.8945 52.8943L16.6367 48.3585C14.0249 47.392 14.0249 43.6978 16.6367 42.7314L28.8945 38.1956C29.7157 37.8917 30.3631 37.2443 30.667 36.4231L35.2028 24.1653Z" fill="#C7C7E8"/>
  <path d="M9.60779 16.6372C10.5743 14.0254 14.2684 14.0254 15.2349 16.6372L15.2975 16.8064C15.6014 17.6276 16.2488 18.275 17.07 18.5789L17.2392 18.6415C19.851 19.608 19.851 23.3021 17.2392 24.2686L17.07 24.3312C16.2488 24.6351 15.6014 25.2825 15.2975 26.1037L15.2349 26.2729C14.2684 28.8847 10.5743 28.8847 9.60779 26.2729L9.54518 26.1037C9.24132 25.2825 8.59389 24.6351 7.77273 24.3312L7.60351 24.2686C4.99166 23.3021 4.99166 19.608 7.60351 18.6415L7.77273 18.5789C8.59389 18.275 9.24132 17.6276 9.54518 16.8064L9.60779 16.6372Z" fill="#C7C7E8"/>
  <path d="M48.5277 5.16542C49.1843 3.39107 51.6939 3.39107 52.3505 5.16542V5.16542C52.5569 5.72327 52.9967 6.1631 53.5546 6.36952V6.36952C55.3289 7.02609 55.3289 9.53571 53.5546 10.1923V10.1923C52.9967 10.3987 52.5569 10.8385 52.3505 11.3964V11.3964C51.6939 13.1707 49.1843 13.1707 48.5277 11.3964V11.3964C48.3213 10.8385 47.8815 10.3987 47.3236 10.1923V10.1923C45.5493 9.53571 45.5493 7.02609 47.3236 6.36952V6.36952C47.8815 6.1631 48.3213 5.72327 48.5277 5.16542V5.16542Z" fill="#C7C7E8"/>
</svg>
