<svg width="164" height="87" viewBox="0 0 164 87" fill="none" xmlns="http://www.w3.org/2000/svg">
  <g clip-path="url(#clip0_3611_7979)">
    <path fill-rule="evenodd" clip-rule="evenodd" d="M3.63989 38.5041C13.4229 39.2957 23.6535 38.8932 28.9766 39.782C30.7312 40.0745 32.8598 40.7258 30.4861 41.2827C24.7559 42.6276 17.8648 43.0053 11.3845 42.0355C12.7475 42.6285 14.0847 43.315 15.8766 44.3395C27.8084 51.1623 41.6539 56.5807 55.6779 59.2834C67.2839 61.5207 79.7558 62.1214 91.3155 59.2783C88.0694 54.8635 85.3393 50.2005 83.1777 45.1404C78.5701 34.3553 78.321 19.6384 92.7793 17.1282C104.799 15.0419 113.238 26.6934 112.491 37.7993C111.953 45.8054 107.844 50.9368 103.123 55.5646C101.126 57.521 98.8241 59.1412 96.2744 60.4552C120.2 85.2303 148.798 77.3784 159.132 51.2199C151.274 84.3692 113.88 85.3346 93.6108 61.6824C70.0232 71.3582 29.1996 58.636 10.0057 43.37C12.2924 46.6734 13.9452 51.0473 14.8163 55.0881C14.9456 55.6863 15.6638 58.0242 15.3596 59.1643C15.247 59.5878 14.9926 59.8473 14.5155 59.7902C14.2433 59.7576 13.9844 59.5631 13.739 59.2252C13.0267 58.241 11.7451 54.8175 10.4577 51.4854C8.54715 46.5418 6.78267 42.8498 3.63989 38.5041ZM93.8309 57.7906C90.4245 53.1576 87.4643 47.9209 85.3175 42.5952C81.8574 34.0128 81.8408 24.5719 89.9092 20.9725C94.9023 18.7451 99.6641 19.8528 103.307 23.1079C116.426 34.8321 105.445 53.4348 93.8309 57.7906Z" fill="#B0B3F4"/>
  </g>
  <defs>
    <clipPath id="clip0_3611_7979">
      <rect width="155.111" height="57.6472" fill="white" transform="translate(152.441 86.1855) rotate(-169.167)"/>
    </clipPath>
  </defs>
</svg>
