<svg width="57" height="66" viewBox="0 0 57 66" fill="none" xmlns="http://www.w3.org/2000/svg">
  <path d="M30.2008 21.165C31.1673 18.5532 34.8615 18.5532 35.828 21.165L40.3638 33.4229C40.6676 34.244 41.315 34.8915 42.1362 35.1953L54.394 39.7311C57.0059 40.6976 57.0059 44.3918 54.394 45.3582L42.1362 49.894C41.315 50.1979 40.6676 50.8453 40.3638 51.6665L35.828 63.9243C34.8615 66.5362 31.1673 66.5362 30.2008 63.9243L25.665 51.6665C25.3612 50.8453 24.7138 50.1979 23.8926 49.894L11.6348 45.3582C9.02291 44.3918 9.02291 40.6976 11.6348 39.7311L23.8926 35.1953C24.7138 34.8915 25.3612 34.244 25.665 33.4229L30.2008 21.165Z" fill="#C7C7E8"/>
  <path d="M4.60779 13.6377C5.57427 11.0258 9.26843 11.0258 10.2349 13.6377L10.2975 13.8069C10.6014 14.6281 11.2488 15.2755 12.07 15.5794L12.2392 15.642C14.851 16.6084 14.851 20.3026 12.2392 21.2691L12.07 21.3317C11.2488 21.6356 10.6014 22.283 10.2975 23.1041L10.2349 23.2734C9.26843 25.8852 5.57427 25.8852 4.60779 23.2734L4.54518 23.1041C4.24132 22.283 3.59389 21.6356 2.77273 21.3317L2.60351 21.2691C-0.00834083 20.3026 -0.00834015 16.6084 2.60351 15.642L2.77273 15.5794C3.59389 15.2755 4.24132 14.6281 4.54518 13.8069L4.60779 13.6377Z" fill="#C7C7E8"/>
  <path d="M43.5258 2.16542C44.1823 0.391066 46.692 0.391066 47.3485 2.16542V2.16542C47.5549 2.72327 47.9948 3.1631 48.5526 3.36952V3.36952C50.327 4.02609 50.327 6.53571 48.5526 7.19228V7.19228C47.9948 7.3987 47.5549 7.83853 47.3485 8.39638V8.39638C46.692 10.1707 44.1823 10.1707 43.5258 8.39638V8.39638C43.3193 7.83853 42.8795 7.3987 42.3217 7.19228V7.19228C40.5473 6.53571 40.5473 4.02609 42.3217 3.36952V3.36952C42.8795 3.1631 43.3193 2.72327 43.5258 2.16542V2.16542Z" fill="#C7C7E8"/>
</svg>
